<svg width="145" height="145" viewBox="0 0 145 145" fill="none" xmlns="http://www.w3.org/2000/svg">
<path d="M145 72.5C145 112.541 112.541 145 72.5 145C32.4594 145 0 112.541 0 72.5C0 32.4594 32.4594 0 72.5 0C112.541 0 145 32.4594 145 72.5Z" fill="#303030"/>
<path d="M38 27H68V127H57C46.5066 127 38 118.493 38 108V27Z" fill="#B0E3F1"/>
<path d="M88 27C92.5963 27 97.1475 27.9053 101.394 29.6642C105.64 31.4231 109.499 34.0012 112.749 37.2513C115.999 40.5013 118.577 44.3597 120.336 48.6061C122.095 52.8525 123 57.4037 123 62C123 66.5963 122.095 71.1475 120.336 75.3939C118.577 79.6403 115.999 83.4987 112.749 86.7487C109.499 89.9988 105.64 92.5769 101.394 94.3358C97.1475 96.0947 92.5963 97 88 97V27Z" fill="#A082C3"/>
<path d="M104.008 46.7284C104.157 45.5648 105.843 45.5648 105.992 46.7284L107.248 56.5157C107.332 57.1706 108.016 57.5657 108.626 57.3111L117.73 53.5052C118.812 53.0527 119.655 54.512 118.722 55.2232L110.874 61.2047C110.348 61.6049 110.348 62.3951 110.874 62.7953L118.722 68.7768C119.655 69.488 118.812 70.9473 117.73 70.4948L108.626 66.6889C108.016 66.4343 107.332 66.8294 107.248 67.4843L105.992 77.2716C105.843 78.4352 104.157 78.4352 104.008 77.2716L102.752 67.4843C102.668 66.8294 101.984 66.4343 101.374 66.6889L92.2703 70.4948C91.1879 70.9473 90.3454 69.488 91.2784 68.7768L99.1265 62.7953C99.6516 62.3951 99.6516 61.6049 99.1265 61.2047L91.2784 55.2232C90.3454 54.512 91.1879 53.0527 92.2703 53.5052L101.374 57.3111C101.984 57.5657 102.668 57.1706 102.752 56.5157L104.008 46.7284Z" fill="#C6FD6E"/>
</svg>
