<svg width="41" height="40" viewBox="0 0 41 40" fill="none" xmlns="http://www.w3.org/2000/svg">
<rect x="0.666992" width="40" height="40" rx="20" fill="#CBE4AD"/>
<path d="M16.975 29.0001H24.359C28.0695 29.0001 28.734 27.5511 28.9278 25.7871L29.6201 18.5871C29.8693 16.3911 29.2232 14.6001 25.282 14.6001H16.052C12.1108 14.6001 11.4647 16.3911 11.7139 18.5871L12.4061 25.7871C12.6 27.5511 13.2645 29.0001 16.975 29.0001Z" stroke="black" stroke-width="1.5" stroke-miterlimit="10" stroke-linecap="round" stroke-linejoin="round"/>
<path d="M16.9746 14.6V13.88C16.9746 12.287 16.9746 11 19.9282 11H21.405C24.3586 11 24.3586 12.287 24.3586 13.88V14.6" stroke="black" stroke-width="1.5" stroke-miterlimit="10" stroke-linecap="round" stroke-linejoin="round"/>
<path d="M18.4786 21.3312C16.1772 21.0799 13.9186 20.2948 11.9004 19" stroke="black" stroke-width="1.5" stroke-miterlimit="10" stroke-linecap="round" stroke-linejoin="round"/>
<path d="M22.9004 21.3312C25.2018 21.0799 27.4604 20.2948 29.4786 19" stroke="black" stroke-width="1.5" stroke-miterlimit="10" stroke-linecap="round" stroke-linejoin="round"/>
<circle cx="20.667" cy="21.5" r="2" stroke="black" stroke-width="1.5" stroke-linecap="round" stroke-linejoin="round"/>
</svg>
