<svg width="51" height="50" viewBox="0 0 51 50" fill="none" xmlns="http://www.w3.org/2000/svg">
<rect x="0.333008" width="50" height="50" rx="25" fill="#B0E3F1"/>
<path d="M29.833 18V16" stroke="black" stroke-width="1.5" stroke-linecap="round" stroke-linejoin="round"/>
<path d="M20.833 18V16" stroke="black" stroke-width="1.5" stroke-linecap="round" stroke-linejoin="round"/>
<path d="M16.583 21H34.083" stroke="black" stroke-width="1.5" stroke-linecap="round" stroke-linejoin="round"/>
<path d="M23.5908 27.2418L24.6248 28.4235C24.7196 28.5319 24.8906 28.5239 24.9749 28.4072L27.0745 25.5" stroke="black" stroke-width="1.5" stroke-linecap="round" stroke-linejoin="round"/>
<path d="M16.333 23.0444C16.333 20.9287 16.333 19.8708 16.769 19.0627C17.1525 18.3519 17.7644 17.7739 18.517 17.4118C19.3727 17 20.4928 17 22.733 17H27.933C30.1732 17 31.2933 17 32.149 17.4118C32.9016 17.7739 33.5135 18.3519 33.897 19.0627C34.333 19.8708 34.333 20.9287 34.333 23.0444V27.9556C34.333 30.0713 34.333 31.1292 33.897 31.9373C33.5135 32.6481 32.9016 33.2261 32.149 33.5882C31.2933 34 30.1732 34 27.933 34H22.733C20.4928 34 19.3727 34 18.517 33.5882C17.7644 33.2261 17.1525 32.6481 16.769 31.9373C16.333 31.1292 16.333 30.0713 16.333 27.9556V23.0444Z" stroke="black" stroke-width="1.5" stroke-linecap="round" stroke-linejoin="round"/>
</svg>
