<svg width="35" height="35" viewBox="0 0 35 35" fill="none" xmlns="http://www.w3.org/2000/svg">
<rect width="35" height="35" rx="17.5" fill="#475569"/>
<path d="M21.6667 10.417C21.6667 10.3064 21.6228 10.2005 21.5446 10.1223C21.4665 10.0442 21.3605 10.0003 21.25 10.0003H19.1667C18.1176 9.94803 17.0905 10.3131 16.3098 11.0158C15.529 11.7184 15.0582 12.7015 15 13.7503V16.0003H12.9167C12.8062 16.0003 12.7002 16.0442 12.622 16.1223C12.5439 16.2005 12.5 16.3064 12.5 16.417V18.5836C12.5 18.6941 12.5439 18.8001 12.622 18.8783C12.7002 18.9564 12.8062 19.0003 12.9167 19.0003H15V24.5836C15 24.6941 15.0439 24.8001 15.122 24.8783C15.2002 24.9564 15.3062 25.0003 15.4167 25.0003H17.9167C18.0272 25.0003 18.1332 24.9564 18.2113 24.8783C18.2894 24.8001 18.3333 24.6941 18.3333 24.5836V19.0003H20.5167C20.6093 19.0016 20.6998 18.972 20.7737 18.9162C20.8477 18.8603 20.9009 18.7814 20.925 18.692L21.525 16.5253C21.5416 16.4637 21.5438 16.3992 21.5315 16.3366C21.5192 16.2741 21.4927 16.2151 21.4541 16.1644C21.4155 16.1137 21.3657 16.0725 21.3086 16.0441C21.2516 16.0156 21.1888 16.0006 21.125 16.0003H18.3333V13.7503C18.3541 13.544 18.4509 13.3529 18.605 13.2142C18.7591 13.0755 18.9594 12.9992 19.1667 13.0003H21.25C21.3605 13.0003 21.4665 12.9564 21.5446 12.8782C21.6228 12.8001 21.6667 12.6941 21.6667 12.5836V10.417Z" fill="white"/>
</svg>
