<svg width="50" height="50" viewBox="0 0 50 50" fill="none" xmlns="http://www.w3.org/2000/svg">
<rect width="50" height="50" rx="25" fill="#C6B4DB"/>
<path d="M25 34C29.9706 34 34 29.9706 34 25C34 20.0294 29.9706 16 25 16M25 34C20.0294 34 16 29.9706 16 25C16 20.0294 20.0294 16 25 16M25 34C27.7614 34 28.9413 28.837 28.9413 25C28.9413 21.163 27.7614 16 25 16M25 34C22.2386 34 21.0589 28.8369 21.0589 25C21.0589 21.1631 22.2386 16 25 16M16.4999 22C23.1388 22 26.861 22 33.4999 22M16.4999 28C23.1388 28 26.861 28 33.4999 28" stroke="black" stroke-width="1.5" stroke-linecap="round" stroke-linejoin="round"/>
</svg>
