<svg width="35" height="35" viewBox="0 0 35 35" fill="none" xmlns="http://www.w3.org/2000/svg">
<rect width="35" height="35" rx="17.5" fill="#475569"/>
<path fill-rule="evenodd" clip-rule="evenodd" d="M13.3772 7.56C14.4439 7.51111 14.7839 7.5 17.5 7.5C20.2166 7.5 20.5561 7.51166 21.6222 7.56C22.6872 7.60834 23.4145 7.77778 24.0505 8.025C24.7177 8.27619 25.3221 8.66976 25.8216 9.17834C26.3303 9.67782 26.7239 10.2822 26.975 10.9494C27.2222 11.5856 27.3911 12.3128 27.44 13.3772C27.4889 14.4439 27.5 14.7839 27.5 17.5C27.5 20.2161 27.4884 20.5561 27.44 21.6228C27.3916 22.6872 27.2222 23.4145 26.975 24.0505C26.7195 24.7078 26.3772 25.2661 25.8216 25.8216C25.3222 26.3303 24.7177 26.7239 24.0505 26.975C23.4145 27.2222 22.6872 27.3911 21.6228 27.44C20.5561 27.4889 20.2161 27.5 17.5 27.5C14.7839 27.5 14.4439 27.4884 13.3772 27.44C12.3128 27.3916 11.5856 27.2222 10.9494 26.975C10.2922 26.7195 9.73389 26.3772 9.17834 25.8216C8.66967 25.3222 8.27607 24.7177 8.025 24.0505C7.77778 23.4145 7.60889 22.6872 7.56 21.6228C7.51111 20.5561 7.5 20.2166 7.5 17.5C7.5 14.7833 7.51166 14.4439 7.56 13.3778C7.60834 12.3128 7.77778 11.5856 8.025 10.9494C8.27619 10.2823 8.66976 9.67789 9.17834 9.17834C9.67781 8.66967 10.2822 8.27607 10.9494 8.025C11.5856 7.77778 12.3128 7.60889 13.3772 7.56ZM21.5411 9.36C20.4866 9.31222 20.17 9.30166 17.5 9.30166C14.83 9.30166 14.5133 9.31222 13.4589 9.36C12.4839 9.40445 11.9544 9.56722 11.6022 9.70445C11.1356 9.88555 10.8022 10.1022 10.4522 10.4522C10.1028 10.8022 9.88555 11.1356 9.70445 11.6022C9.56722 11.9544 9.40445 12.4839 9.36 13.4589C9.31222 14.5133 9.30166 14.83 9.30166 17.5C9.30166 20.17 9.31222 20.4866 9.36 21.5411C9.40445 22.5161 9.56722 23.0455 9.70445 23.3978C9.86465 23.8322 10.1202 24.2251 10.4522 24.5478C10.7749 24.8798 11.1678 25.1354 11.6022 25.2955C11.9544 25.4328 12.4839 25.5955 13.4589 25.64C14.5133 25.6878 14.8294 25.6984 17.5 25.6984C20.1705 25.6984 20.4866 25.6878 21.5411 25.64C22.5161 25.5955 23.0455 25.4328 23.3978 25.2955C23.8645 25.1145 24.1978 24.8978 24.5478 24.5478C24.8798 24.2252 25.1354 23.8322 25.2955 23.3978C25.4328 23.0455 25.5955 22.5161 25.64 21.5411C25.6878 20.4866 25.6984 20.17 25.6984 17.5C25.6984 14.83 25.6878 14.5133 25.64 13.4589C25.5955 12.4839 25.4328 11.9544 25.2955 11.6022C25.1145 11.1356 24.8978 10.8022 24.5478 10.4522C24.1978 10.1028 23.8645 9.88555 23.3978 9.70445C23.0455 9.56722 22.5161 9.40445 21.5411 9.36ZM16.2232 20.5826C16.628 20.7504 17.0618 20.8366 17.5 20.8366C18.385 20.8366 19.2336 20.4851 19.8594 19.8594C20.4852 19.2336 20.8367 18.3849 20.8367 17.5C20.8367 16.6151 20.4852 15.7664 19.8594 15.1406C19.2336 14.5149 18.385 14.1633 17.5 14.1633C17.0618 14.1633 16.628 14.2496 16.2232 14.4173C15.8183 14.585 15.4505 14.8308 15.1406 15.1406C14.8308 15.4505 14.585 15.8183 14.4173 16.2231C14.2497 16.6279 14.1634 17.0618 14.1634 17.5C14.1634 17.9382 14.2497 18.3721 14.4173 18.7769C14.585 19.1817 14.8308 19.5495 15.1406 19.8594C15.4505 20.1692 15.8183 20.415 16.2232 20.5826ZM13.8655 13.8655C14.8294 12.9015 16.1368 12.36 17.5 12.36C18.8633 12.36 20.1706 12.9015 21.1345 13.8655C22.0985 14.8294 22.64 16.1368 22.64 17.5C22.64 18.8632 22.0985 20.1705 21.1345 21.1345C20.1706 22.0985 18.8633 22.64 17.5 22.64C16.1368 22.64 14.8294 22.0985 13.8655 21.1345C12.9016 20.1705 12.36 18.8632 12.36 17.5C12.36 16.1368 12.9016 14.8294 13.8655 13.8655ZM23.7797 13.1258C24.0075 12.8979 24.1355 12.5889 24.1355 12.2667C24.1355 11.9444 24.0075 11.6354 23.7797 11.4075C23.5518 11.1797 23.2428 11.0517 22.9205 11.0517C22.5984 11.0517 22.2893 11.1797 22.0615 11.4075C21.8335 11.6354 21.7055 11.9444 21.7055 12.2667C21.7055 12.5889 21.8335 12.8979 22.0615 13.1258C22.2893 13.3537 22.5984 13.4817 22.9205 13.4817C23.2428 13.4817 23.5518 13.3537 23.7797 13.1258Z" fill="white"/>
</svg>
