<svg width="35" height="35" viewBox="0 0 35 35" fill="none" xmlns="http://www.w3.org/2000/svg">
<rect width="35" height="35" rx="17.5" fill="white"/>
<path d="M11.9769 27.5H7.83036V14.147H11.9769V27.5ZM9.90139 12.3256C8.57547 12.3256 7.5 11.2273 7.5 9.90139C7.5 9.2645 7.753 8.6537 8.20335 8.20335C8.6537 7.753 9.2645 7.5 9.90139 7.5C10.5383 7.5 11.1491 7.753 11.5994 8.20335C12.0498 8.6537 12.3028 9.2645 12.3028 9.90139C12.3028 11.2273 11.2269 12.3256 9.90139 12.3256ZM27.496 27.5H23.3584V20.9999C23.3584 19.4507 23.3271 17.4641 21.2025 17.4641C19.0467 17.4641 18.7163 19.1471 18.7163 20.8882V27.5H14.5743V14.147H18.5511V15.9685H18.6092C19.1628 14.9194 20.515 13.8122 22.5325 13.8122C26.729 13.8122 27.5004 16.5756 27.5004 20.165V27.5H27.496Z" fill="#D8581F"/>
</svg>
