<svg width="145" height="145" viewBox="0 0 145 145" fill="none" xmlns="http://www.w3.org/2000/svg">
<path d="M145 72.5C145 112.541 112.541 145 72.5 145C32.4594 145 0 112.541 0 72.5C0 32.4594 32.4594 0 72.5 0C112.541 0 145 32.4594 145 72.5Z" fill="#444444"/>
<path d="M35 47H55V67H35V47Z" fill="#B0E3F1"/>
<path d="M35 27H55V47H35V27Z" fill="#B0E3F1"/>
<path d="M35 67H55V87H35V67Z" fill="#B0E3F1"/>
<path d="M35 87H55V107H35V87Z" fill="#B0E3F1"/>
<path d="M35 107H55V127C43.9543 127 35 118.046 35 107Z" fill="#B0E3F1"/>
<path d="M85 27C94.2826 27 103.185 30.6875 109.749 37.2513C116.313 43.815 120 52.7174 120 62C120 71.2826 116.313 80.185 109.749 86.7487C103.185 93.3125 94.2826 97 85 97L85 27Z" fill="#A082C3"/>
<path d="M100.514 48.8781C100.7 47.7654 102.3 47.7654 102.486 48.8781L103.834 56.9139C103.938 57.5337 104.582 57.9051 105.17 57.6853L112.804 54.835C113.861 54.4403 114.66 55.8251 113.79 56.5431L107.505 61.7286C107.02 62.1286 107.02 62.8714 107.505 63.2714L113.79 68.4569C114.66 69.1749 113.861 70.5597 112.804 70.165L105.17 67.3147C104.582 67.0949 103.938 67.4663 103.834 68.0861L102.486 76.1219C102.3 77.2346 100.7 77.2346 100.514 76.1219L99.1656 68.0861C99.0616 67.4663 98.4183 67.0949 97.8295 67.3147L90.1962 70.165C89.1392 70.5597 88.3397 69.1749 89.21 68.4569L95.4951 63.2714C95.9799 62.8714 95.9799 62.1286 95.4951 61.7286L89.21 56.5431C88.3397 55.8251 89.1392 54.4403 90.1962 54.835L97.8295 57.6853C98.4183 57.9051 99.0616 57.5337 99.1656 56.9139L100.514 48.8781Z" fill="#C6FD6E"/>
<path d="M55 27H65V37H55V27Z" fill="#B0E3F1"/>
<path d="M55 47H65V57H55V47Z" fill="#B0E3F1"/>
<path d="M55 67H65V77H55V67Z" fill="#B0E3F1"/>
<path d="M55 87H65V97H55V87Z" fill="#B0E3F1"/>
<path d="M55 37H65V47H55V37Z" fill="#B0E3F1"/>
<path d="M55 57H65V67H55V57Z" fill="#B0E3F1"/>
<path d="M55 77H65V87H55V77Z" fill="#B0E3F1"/>
<path d="M55 97H65V107H55V97Z" fill="#B0E3F1"/>
<path d="M55 107H65V117H55V107Z" fill="#B0E3F1"/>
<path d="M55 117H65V127H55V117Z" fill="#B0E3F1"/>
</svg>
