<svg width="24" height="25" viewBox="0 0 24 25" fill="none" xmlns="http://www.w3.org/2000/svg">
<path d="M15.6 15.0215C13.205 17.5421 7.09582 11.4878 9.49995 8.95753C10.9678 7.41263 9.30963 5.64707 8.3918 4.34934C6.66924 1.91378 2.88771 5.27641 3.00256 7.41544C3.36473 14.1609 10.6615 22.1546 17.7275 21.4574C19.9381 21.2393 22.4778 17.2471 19.9423 15.7882C18.6745 15.0587 16.9342 13.6172 15.6 15.0215Z" stroke="white" stroke-width="1.5" stroke-linecap="round" stroke-linejoin="round"/>
<path d="M14 3.5C15.8565 3.5 17.637 4.2375 18.9497 5.55025C20.2625 6.86301 21 8.64348 21 10.5" stroke="white" stroke-width="1.5" stroke-linecap="round" stroke-linejoin="round"/>
<path d="M14 7.5C14.7956 7.5 15.5587 7.81607 16.1213 8.37868C16.6839 8.94129 17 9.70435 17 10.5" stroke="white" stroke-width="1.5" stroke-linecap="round" stroke-linejoin="round"/>
</svg>
