<svg width="35" height="35" viewBox="0 0 35 35" fill="none" xmlns="http://www.w3.org/2000/svg">
<rect width="35" height="35" rx="17.5" fill="white"/>
<path d="M14.2332 24.1667C15.4655 24.2079 16.6935 24.0017 17.8447 23.5602C18.9959 23.1188 20.0469 22.4511 20.9357 21.5965C21.8244 20.7419 22.5328 19.7179 23.0191 18.5849C23.5053 17.4519 23.7595 16.2329 23.7666 15C24.3313 14.3012 24.7506 13.4965 24.9999 12.6333C25.0185 12.5651 25.017 12.493 24.9956 12.4256C24.9742 12.3583 24.9337 12.2985 24.8791 12.2536C24.8245 12.2087 24.7581 12.1806 24.6879 12.1725C24.6176 12.1645 24.5466 12.1769 24.4832 12.2083C24.1878 12.3505 23.8552 12.3965 23.5323 12.3397C23.2094 12.2829 22.9124 12.1262 22.6832 11.8917C22.3907 11.5713 22.0368 11.3129 21.6426 11.1319C21.2484 10.9508 20.8218 10.8507 20.3882 10.8374C19.9546 10.8242 19.5227 10.8982 19.1182 11.0549C18.7137 11.2117 18.3447 11.448 18.0332 11.75C17.6067 12.163 17.2943 12.6794 17.1264 13.2489C16.9585 13.8184 16.9408 14.4216 17.0749 15C14.2832 15.1667 12.3666 13.8417 10.8332 12.025C10.7872 11.9728 10.7269 11.9352 10.6598 11.9167C10.5927 11.8982 10.5217 11.8997 10.4554 11.9209C10.3892 11.9421 10.3305 11.9822 10.2866 12.0362C10.2427 12.0902 10.2155 12.1558 10.2082 12.225C9.91614 13.8453 10.1269 15.5163 10.8121 17.0134C11.4973 18.5105 12.6243 19.7621 14.0416 20.6C13.0913 21.6899 11.7568 22.3705 10.3166 22.5C10.2394 22.5128 10.1682 22.5494 10.1129 22.6047C10.0575 22.66 10.0209 22.7311 10.008 22.8083C9.99517 22.8854 10.0068 22.9647 10.0412 23.0349C10.0756 23.1051 10.1311 23.1629 10.1999 23.2C11.4528 23.8261 12.8326 24.1568 14.2332 24.1667Z" fill="#D8581F"/>
</svg>
